<svg width="8" height="8" viewBox="0 0 8 8" fill="none" xmlns="http://www.w3.org/2000/svg">
<path d="M0.135142 0C0.309915 0.50377 0.323749 1.01639 0.358041 1.49785C0.401881 2.11052 0.477479 2.66653 0.909832 3.14816C0.944904 3.18889 1.08324 3.26503 1.28588 3.31461C1.48851 3.36419 1.75155 3.39429 2.03602 3.39429C2.52702 3.39075 3.08231 3.29159 3.53435 3.0614C2.11006 2.57622 1.14169 1.77408 0.902039 0.740692C1.63854 1.58816 2.28541 2.24687 3.67853 2.62403C3.70776 2.40092 3.76231 2.19197 3.79933 2.00251C3.86168 1.68378 3.86947 1.45358 3.7097 1.2836C3.43303 0.993197 2.7355 0.759639 1.95808 0.549277C1.34433 0.383715 0.687713 0.223642 0.135142 0ZM6.20952 1.88033C5.54121 2.14948 4.7638 2.53372 4.0273 2.67007C4.01366 2.78162 4.00586 2.89141 4.01171 2.99765C4.85927 2.86662 5.6854 2.43988 6.35175 2.1725C6.64207 2.07865 7.18957 1.82721 7.4643 1.99542C7.73903 2.2026 7.65135 2.61341 7.589 2.85422C7.51496 3.14462 7.38831 3.47752 7.25192 3.79271C7.34155 3.90072 7.41754 4.04415 7.46625 4.15747C7.6455 3.75729 7.82865 3.31461 7.92997 2.92682C8.02349 2.47706 8.09169 2.01313 7.66499 1.73336C7.20516 1.48192 6.5992 1.72628 6.20952 1.88033ZM5.83932 4.02113C5.16322 4.49568 4.70145 4.99503 4.09354 5.31376C3.48758 5.63249 2.73745 5.73873 1.58593 5.42708C0.898142 5.24116 0.483714 5.3049 0.263153 5.45364C0.0427876 5.60238 -0.036318 5.86445 0.0151202 6.1938C0.118191 6.85428 0.790979 7.67944 1.61711 7.82287C2.94593 8.05129 4.06821 8.06545 4.96643 7.82641C5.86465 7.58736 6.5427 7.10572 7.02006 6.30536C7.32012 5.8007 7.37857 4.90649 7.16229 4.33101C6.93823 3.71302 6.38293 3.65459 5.83932 4.02113Z" fill="#727F48"/>
</svg>
